:SAMPLES-PER-SECOND 24
:FULLY-SPECIFIED
:DEGREES
257
root  12.0957 35.8742 12.038 -172.246 -28.7728 169.791
RightUpLeg  -38.3602 -0.515882 -18.3324
RightLeg  46.0104 6.94959 7.35534
RightFoot  -12.3452 -0.0254037 7.2544
RightToes  -2.08645e-008 3.77894e-005 6.81332e-007
Spine  28.5746 -4.52127 26.8382
Spine1  -2.75262 3.77444 -11.5667
HEad  -48.7665 52.1343 -45.3042
LeftShoulder1  8.59292 -14.2982 -41.9423
LeftArm  2.98909 17.0507 -24.4492
LeftForeArm  56.344 -76.2072 -42.1509
LeftHand  -0.751119 -3.17664 10.4135
RightShoulder  3.65166 6.98672 28.8698
RightArm  3.11799 22.5555 13.7201
RightForeArm  27.5544 49.8638 11.2094
RightHand  -1.26737 8.44202 -10.9734
LeftUpLeg  -41.1287 3.78574 8.21691
LeftLeg  76.333 1.73621 9.79325
LeftFoot  -3.07778 0.641326 -8.48192
LeftToes  1.24767e-006 1.47042e-008 1.32732e-009
258
root  12.9353 35.9211 10.9794 -170.334 -33.02 164.409
RightUpLeg  -36.6402 -2.83815 -20.6808
RightLeg  49.8412 4.32897 5.13291
RightFoot  -13.5713 -0.0248729 3.44769
RightToes  -2.08645e-008 3.77894e-005 6.81332e-007
Spine  29.7327 -3.09604 29.5668
Spine1  -2.50346 7.62374 -19.7107
HEad  -47.0404 52.9685 -45.1853
LeftShoulder1  8.21659 -13.9842 -40.7364
LeftArm  1.58796 21.2909 -18.2469
LeftForeArm  81.7404 -79.832 -69.2451
LeftHand  -0.613641 -2.84117 8.88147
RightShoulder  3.30046 6.79427 26.0106
RightArm  4.1258 34.885 22.3011
RightForeArm  28.8647 47.0534 9.94447
RightHand  -1.21507 8.98551 -10.1514
LeftUpLeg  -50.4844 9.87944 7.00321
LeftLeg  84.2035 0.318653 8.7785
LeftFoot  -6.14448 0.459083 -9.29258
LeftToes  1.24767e-006 1.47042e-008 1.32732e-009
259
root  13.5932 36.4484 9.88572 -167.103 -37.6735 157.258
RightUpLeg  -32.4388 -4.33804 -24.3812
RightLeg  50.1068 0.869058 0.772286
RightFoot  -13.894 -0.0482798 2.05061
RightToes  -2.08645e-008 3.77894e-005 6.81332e-007
Spine  31.1481 -1.40991 30.3918
Spine1  -2.7971 11.1353 -27.1191
HEad  -44.3579 53.1466 -42.847
LeftShoulder1  7.18816 -13.09 -37.238
LeftArm  2.46753 22.5924 -14.4691
LeftForeArm  126.481 -79.6749 -113.843
LeftHand  -0.347324 -2.21436 5.53952
RightShoulder  2.86384 6.56665 22.2026
RightArm  5.8777 41.2274 27.6502
RightForeArm  29.6097 45.8584 9.43929
RightHand  -1.31634 9.29987 -10.7416
LeftUpLeg  -56.376 14.0976 7.93767
LeftLeg  90.0606 -0.576831 7.79504
LeftFoot  -7.54547 0.36677 -9.67134
LeftToes  1.24767e-006 1.47042e-008 1.32732e-009
260
root  13.8403 37.7204 8.72114 -161.356 -44.283 148.756
RightUpLeg  -24.0495 -7.69724 -28.2244
RightLeg  44.4183 -2.10539 -2.56337
RightFoot  -13.0537 -0.0603351 1.425
RightToes  -2.08645e-008 3.77894e-005 6.81332e-007
Spine  29.7951 0.0971668 29.917
Spine1  -2.70446 12.7405 -31.5363
HEad  -41.3119 53.0725 -38.8839
LeftShoulder1  6.31856 -12.2578 -34.0819
LeftArm  4.47265 20.7048 -13.0661
LeftForeArm  145.215 -77.7865 -130.347
LeftHand  -0.266549 -3.37181 3.79236
RightShoulder  2.55672 6.33062 19.5903
RightArm  8.14989 41.7666 29.3151
RightForeArm  30.3252 46.1145 9.45611
RightHand  -1.12466 9.65132 -9.03866
LeftUpLeg  -58.641 16.2605 11.9049
LeftLeg  92.9482 -1.31177 11.7075
LeftFoot  -7.90852 0.269153 -7.37326
LeftToes  1.24767e-006 1.47042e-008 1.32732e-009
261
root  13.8259 39.6591 7.44862 -151.896 -51.0845 138.555
RightUpLeg  -13.7991 -9.09993 -30.9024
RightLeg  34.1558 -8.88773 -6.65206
RightFoot  -7.48301 -0.153436 2.93526
RightToes  -2.08645e-008 3.77894e-005 6.81332e-007
Spine  27.1222 1.57567 26.8777
Spine1  -4.10253 12.5343 -33.8245
HEad  -37.7462 52.9015 -34.2806
LeftShoulder1  5.74576 -11.642 -31.9377
LeftArm  8.65434 17.7107 -12.8905
LeftForeArm  151.451 -76.5916 -136.245
LeftHand  -0.119081 -4.43414 1.69258
RightShoulder  2.55618 6.19294 19.9846
RightArm  10.7728 35.8629 28.0398
RightForeArm  30.8654 51.2171 11.4734
RightHand  -0.856251 9.13022 -7.21766
LeftUpLeg  -58.1714 19.1747 17.6198
LeftLeg  90.3803 -1.00574 16.7717
LeftFoot  -8.63342 0.20883 -6.65493
LeftToes  1.24767e-006 1.47042e-008 1.32732e-009
262
root  13.6137 41.783 6.32058 -140.338 -56.4192 127.244
RightUpLeg  -5.45714 -8.08693 -32.0233
RightLeg  24.6956 -20.292 -10.0753
RightFoot  3.95362 -0.588028 4.57802
RightToes  -2.08645e-008 3.77894e-005 6.81332e-007
Spine  24.9057 2.47965 22.0389
Spine1  -6.76562 10.9572 -34.4686
HEad  -34.9006 51.7586 -30.3763
LeftShoulder1  5.40848 -11.304 -30.5155
LeftArm  14.3205 14.8914 -13.0326
LeftForeArm  156.346 -75.2714 -141.176
LeftHand  0.200767 -5.11322 -1.91169
RightShoulder  2.78464 6.31506 22.1219
RightArm  13.4678 24.9066 23.5573
RightForeArm  34.2048 61.5777 17.675
RightHand  -0.542473 8.02774 -5.0545
LeftUpLeg  -55.2069 23.4399 23.9985
LeftLeg  81.2145 2.51206 22.1281
LeftFoot  -9.37217 0.172716 -6.78316
LeftToes  1.24767e-006 1.47042e-008 1.32732e-009
263
root  13.1732 43.5652 5.38128 -127.9 -60.2642 116.569
RightUpLeg  -1.57183 -7.59871 -31.3584
RightLeg  18.7967 -24.8423 -9.63524
RightFoot  14.8029 -0.874802 4.15966
RightToes  -2.08645e-008 3.77894e-005 6.81332e-007
Spine  21.6359 3.29872 16.0117
Spine1  -9.03874 8.95047 -31.8245
HEad  -34.5943 49.6225 -27.7937
LeftShoulder1  5.06669 -11.1147 -28.6133
LeftArm  19.2567 12.2896 -13.9633
LeftForeArm  161.27 -73.8522 -145.465
LeftHand  0.442236 -5.99323 -4.17781
RightShoulder  3.00652 6.49542 23.933
RightArm  16.9707 12.3215 17.4656
RightForeArm  44.71 71.9119 30.6816
RightHand  -0.440865 6.71875 -4.55637
LeftUpLeg  -50.5013 28.0584 31.9589
LeftLeg  65.2463 9.883 22.9695
LeftFoot  -9.15841 0.189728 -7.03007
LeftToes  1.24767e-006 1.47042e-008 1.32732e-009
264
root  12.7317 44.6262 4.44775 -111.569 -63.4476 102.846
RightUpLeg  -0.758833 -3.6903 -28.8896
RightLeg  17.7587 -18.0417 -6.90955
RightFoot  16.7826 -1.81736 7.78247
RightToes  -2.08645e-008 3.77894e-005 6.81332e-007
Spine  17.0178 3.11362 7.61974
Spine1  -9.10766 6.33302 -26.2125
HEad  -37.3669 47.6497 -27.0904
LeftShoulder1  4.65276 -10.8674 -26.2566
LeftArm  22.4075 9.58625 -16.1651
LeftForeArm  163.527 -72.3875 -148.713
LeftHand  0.471321 -6.01709 -4.45734
RightShoulder  3.11257 6.61706 24.6549
RightArm  21.1188 1.08636 11.5876
RightForeArm  60.9679 77.6377 50.6002
RightHand  -0.226114 6.463 -2.55897
LeftUpLeg  -44.9064 27.6337 41.0967
LeftLeg  42.3535 17.8221 17.1052
LeftFoot  -7.59453 0.302792 -7.86206
LeftToes  1.24767e-006 1.47042e-008 1.32732e-009
265
root  12.2732 44.7731 3.78351 -92.9126 -63.8919 84.692
RightUpLeg  0.180913 4.20511 -26.938
RightLeg  20.1711 -7.37233 -3.14842
RightFoot  11.6903 -2.71486 13.7437
RightToes  -2.08645e-008 3.77894e-005 6.81332e-007
Spine  15.0193 1.96122 -3.71219
Spine1  -7.66757 2.72108 -17.3432
HEad  -41.315 46.5209 -27.8354
LeftShoulder1  4.48975 -10.6858 -25.4949
LeftArm  23.1519 5.53388 -18.5041
LeftForeArm  162.958 -71.5241 -150.129
LeftHand  0.458001 -5.74887 -4.44266
RightShoulder  3.13143 6.75438 24.4142
RightArm  24.8093 -8.32821 6.09037
RightForeArm  68.1371 78.9441 62.4115
RightHand  -0.0816613 6.81537 -1.12753
LeftUpLeg  -37.9742 14.9047 53.7978
LeftLeg  21.0209 26.3963 10.8187
LeftFoot  -6.28867 0.385842 -7.90011
LeftToes  1.24767e-006 1.47042e-008 1.32732e-009
